<svg width="27" height="24" viewBox="0 0 27 24" fill="none" xmlns="http://www.w3.org/2000/svg">
<mask id="mask0_2_190" style="mask-type:alpha" maskUnits="userSpaceOnUse" x="2" y="0" width="23" height="22">
<path fill-rule="evenodd" clip-rule="evenodd" d="M13.5 1C7.97746 1 3.45901 5.5 3.45901 11C3.45901 16.5 7.97746 21 13.5 21C19.0225 21 23.541 16.5 23.541 11C23.541 5.5 19.0225 1 13.5 1V1ZM17.7172 15.2L12.4959 12V6H14.0021V11.2L18.5205 13.9L17.7172 15.2V15.2Z" fill="white"/>
<path d="M12.4959 12H11.9959V12.28L12.2346 12.4263L12.4959 12ZM12.4959 6V5.5H11.9959V6H12.4959ZM14.0021 6H14.5021V5.5H14.0021V6ZM14.0021 11.2H13.5021V11.4837L13.7456 11.6292L14.0021 11.2ZM18.5205 13.9L18.9458 14.1628L19.2126 13.7311L18.777 13.4708L18.5205 13.9ZM13.5 0.5C7.70325 0.5 2.95901 5.22193 2.95901 11H3.95901C3.95901 5.77807 8.25167 1.5 13.5 1.5V0.5ZM2.95901 11C2.95901 16.7781 7.70325 21.5 13.5 21.5V20.5C8.25167 20.5 3.95901 16.2219 3.95901 11H2.95901ZM13.5 21.5C19.2968 21.5 24.041 16.7781 24.041 11H23.041C23.041 16.2219 18.7483 20.5 13.5 20.5V21.5ZM24.041 11C24.041 5.22193 19.2968 0.5 13.5 0.5V1.5C18.7483 1.5 23.041 5.77807 23.041 11H24.041ZM17.9785 14.7737L12.7572 11.5737L12.2346 12.4263L17.4559 15.6263L17.9785 14.7737ZM12.9959 12V6H11.9959V12H12.9959ZM12.4959 6.5H14.0021V5.5H12.4959V6.5ZM13.5021 6V11.2H14.5021V6H13.5021ZM13.7456 11.6292L18.264 14.3292L18.777 13.4708L14.2585 10.7708L13.7456 11.6292ZM18.0951 13.6372L17.2919 14.9372L18.1426 15.4628L18.9458 14.1628L18.0951 13.6372Z" fill="white"/>
</mask>
<g mask="url(#mask0_2_190)">
<rect x="0.446716" y="-2" width="26.1066" height="26" fill="white" fill-opacity="0.5"/>
</g>
</svg>
